<?xml version="1.0" encoding="UTF-8" standalone="no"?>
<!-- Created with Inkscape (http://www.inkscape.org/) -->

<svg
   xmlns:dc="http://purl.org/dc/elements/1.1/"
   xmlns:cc="http://creativecommons.org/ns#"
   xmlns:rdf="http://www.w3.org/1999/02/22-rdf-syntax-ns#"
   xmlns:svg="http://www.w3.org/2000/svg"
   xmlns="http://www.w3.org/2000/svg"
   xmlns:sodipodi="http://sodipodi.sourceforge.net/DTD/sodipodi-0.dtd"
   xmlns:inkscape="http://www.inkscape.org/namespaces/inkscape"
   id="svg2"
   version="1.1"
   inkscape:version="0.91 r13725"
   xml:space="preserve"
   width="392.57501"
   height="120.075"
   viewBox="0 0 392.57501 120.075"
   sodipodi:docname="YAKINDU-Statechart-Tools.svg"
   inkscape:export-filename="/home/klute/itemis/yakindu/YAKINDU-Statechart-Tools.png"
   inkscape:export-xdpi="81.698936"
   inkscape:export-ydpi="81.698936"><metadata
     id="metadata8"><rdf:RDF><cc:Work
         rdf:about=""><dc:format>image/svg+xml</dc:format><dc:type
           rdf:resource="http://purl.org/dc/dcmitype/StillImage" /><dc:title /></cc:Work></rdf:RDF></metadata><defs
     id="defs6"><clipPath
       clipPathUnits="userSpaceOnUse"
       id="clipPath32"><path
         d="M 245.656,921.543 C 165.156,977.059 65.5508,972.254 23.1523,910.801 129.168,959.766 432.914,498.973 503.746,355.105 574.27,211.895 470.848,34.5039 316.254,230.898 c 20.351,-65.07 67.074,-108.679 123.969,-108.339 74.64,0.468 134.672,80.117 134.047,177.91 -0.989,158.816 -207.196,537.351 -328.614,621.074 z"
         id="path34"
         inkscape:connector-curvature="0" /></clipPath><radialGradient
       fx="0"
       fy="0"
       cx="0"
       cy="0"
       r="1"
       gradientUnits="userSpaceOnUse"
       gradientTransform="matrix(-331.032,735.811,735.811,331.032,457.447,181.291)"
       spreadMethod="pad"
       id="radialGradient36"><stop
         style="stop-opacity:1;stop-color:#24265d"
         offset="0"
         id="stop38" /><stop
         style="stop-opacity:1;stop-color:#20457d"
         offset="0.363636"
         id="stop40" /><stop
         style="stop-opacity:1;stop-color:#f89d17"
         offset="0.551515"
         id="stop42" /><stop
         style="stop-opacity:1;stop-color:#f1511b"
         offset="1"
         id="stop44" /></radialGradient><clipPath
       clipPathUnits="userSpaceOnUse"
       id="clipPath52"><path
         d="M 801.531,663.777 C 890.219,704.973 936.648,793.223 905.227,860.918 873.379,752.18 340.156,699.813 182.484,729.031 23.1523,758.508 -48.2813,960.215 173.633,954.48 110.066,972.137 42.9961,951.035 14.4219,901.836 -23.0742,837.297 15.0625,745.117 99.6211,695.996 236.941,616.223 667.758,601.699 801.531,663.777 Z"
         id="path54"
         inkscape:connector-curvature="0" /></clipPath><radialGradient
       fx="0"
       fy="0"
       cx="0"
       cy="0"
       r="1"
       gradientUnits="userSpaceOnUse"
       gradientTransform="matrix(685.549,0.805981,0.805981,-685.549,176.027,890.567)"
       spreadMethod="pad"
       id="radialGradient56"><stop
         style="stop-opacity:1;stop-color:#f89d17"
         offset="0"
         id="stop58" /><stop
         style="stop-opacity:1;stop-color:#f89d17"
         offset="0.460081"
         id="stop60" /><stop
         style="stop-opacity:1;stop-color:#fcd5a5"
         offset="0.575758"
         id="stop62" /><stop
         style="stop-opacity:1;stop-color:#6ac62f"
         offset="0.757576"
         id="stop64" /><stop
         style="stop-opacity:1;stop-color:#1d6434"
         offset="1"
         id="stop66" /></radialGradient><clipPath
       clipPathUnits="userSpaceOnUse"
       id="clipPath74"><path
         d="m 309.16,307.109 c -7.41,-97.492 44.988,-178.347 119.426,-183.984 -96.68,82.883 154.168,556.738 239.891,692.305 114.73,181.445 312.148,30.418 201.371,-102.785 46.078,46.171 60.449,116.054 31.5,165.019 -37.989,64.231 -137.047,75.957 -221.231,26.172 C 543.438,822.988 320.289,454.16 309.16,307.109 Z"
         id="path76"
         inkscape:connector-curvature="0" /></clipPath><radialGradient
       fx="0"
       fy="0"
       cx="0"
       cy="0"
       r="1"
       gradientUnits="userSpaceOnUse"
       gradientTransform="matrix(-375.024,-620.227,-620.227,375.024,819.71,752.586)"
       spreadMethod="pad"
       id="radialGradient78"><stop
         style="stop-opacity:1;stop-color:#6ac62f"
         offset="0"
         id="stop80" /><stop
         style="stop-opacity:1;stop-color:#bae38a"
         offset="0.459378"
         id="stop82" /><stop
         style="stop-opacity:1;stop-color:#8eafa5"
         offset="0.600583"
         id="stop84" /><stop
         style="stop-opacity:1;stop-color:#20457d"
         offset="1"
         id="stop86" /></radialGradient></defs><sodipodi:namedview
     pagecolor="#ffffff"
     bordercolor="#666666"
     borderopacity="1"
     objecttolerance="10"
     gridtolerance="10"
     guidetolerance="10"
     inkscape:pageopacity="0"
     inkscape:pageshadow="2"
     inkscape:window-width="1709"
     inkscape:window-height="733"
     id="namedview4"
     showgrid="false"
     inkscape:zoom="1.372986"
     inkscape:cx="195.55917"
     inkscape:cy="60.037498"
     inkscape:window-x="207"
     inkscape:window-y="434"
     inkscape:window-maximized="0"
     inkscape:current-layer="g12" /><g
     id="g10"
     inkscape:groupmode="layer"
     inkscape:label="ink_ext_XXXXXX"
     transform="matrix(1.25,0,0,-1.25,0,120.075)"><g
       id="g12"
       transform="scale(0.1,0.1)"><path
         d="m 1143.11,538.52 44.66,0 -109.06,-143.692 0,-103.515 -36.7,0 0,101.789 -108.365,145.418 46.738,0 80.667,-112.528 82.06,112.528"
         style="fill:#231f20;fill-opacity:1;fill-rule:nonzero;stroke:none"
         id="path14"
         inkscape:connector-curvature="0" /><path
         d="m 1383.05,504.586 -46.4,-109.406 93.83,0 -47.43,109.406 z m 60.94,-141.262 -121.18,0 -31.51,-72.011 -39.47,0 111.83,247.207 41.89,0 111.84,-247.207 -41.9,0 -31.5,72.011"
         style="fill:#231f20;fill-opacity:1;fill-rule:nonzero;stroke:none"
         id="path16"
         inkscape:connector-curvature="0" /><path
         d="m 1712.32,411.801 -45.01,-39.813 0,-80.675 -36.7,0 0,247.207 36.7,0 0,-124.297 138.14,124.297 51.94,0 -117.38,-102.489 123.95,-144.718 -50.55,0 -101.09,120.488"
         style="fill:#231f20;fill-opacity:1;fill-rule:nonzero;stroke:none"
         id="path18"
         inkscape:connector-curvature="0" /><path
         d="m 1981.68,291.313 36.6992,0 0,247.207 -36.6992,0 0,-247.207 z"
         style="fill:#231f20;fill-opacity:1;fill-rule:nonzero;stroke:none"
         id="path20"
         inkscape:connector-curvature="0" /><path
         d="m 2200.15,487.965 -0.69,0 0,-196.652 -36.7,0 0,247.207 42.58,0 158.91,-196.661 0.69,0 0,196.661 36.7,0 0,-247.207 -42.57,0 -158.92,196.652"
         style="fill:#231f20;fill-opacity:1;fill-rule:nonzero;stroke:none"
         id="path22"
         inkscape:connector-curvature="0" /><path
         d="m 2668.6,323.168 c 60.24,0 70.97,50.547 70.97,94.512 0,43.281 -14.19,88.984 -77.9,88.984 l -82.05,0 0,-183.496 88.98,0 z m -125.68,215.352 125.34,0 c 74.09,0 108.01,-48.477 108.01,-120.145 0,-68.898 -30.11,-127.062 -105.93,-127.062 l -127.42,0 0,247.207"
         style="fill:#231f20;fill-opacity:1;fill-rule:nonzero;stroke:none"
         id="path24"
         inkscape:connector-curvature="0" /><path
         d="m 2904.38,538.52 36.7,0 0,-158.231 c 0,-44.66 29.77,-63.351 75.12,-63.351 45.37,0 75.14,18.691 75.14,63.351 l 0,158.231 36.7,0 0,-153.731 c 0,-66.473 -37.39,-99.707 -111.84,-99.707 -74.43,0 -111.82,33.234 -111.82,99.707 l 0,153.731"
         style="fill:#231f20;fill-opacity:1;fill-rule:nonzero;stroke:none"
         id="path26"
         inkscape:connector-curvature="0" /><g
         id="g28"><g
           id="g30"
           clip-path="url(#clipPath32)"><path
             d="M 245.656,921.543 C 165.156,977.059 65.5508,972.254 23.1523,910.801 129.168,959.766 432.914,498.973 503.746,355.105 574.27,211.895 470.848,34.5039 316.254,230.898 c 20.351,-65.07 67.074,-108.679 123.969,-108.339 74.64,0.468 134.672,80.117 134.047,177.91 -0.989,158.816 -207.196,537.351 -328.614,621.074"
             style="fill:url(#radialGradient36);fill-opacity:1;fill-rule:nonzero;stroke:none"
             id="path46"
             inkscape:connector-curvature="0" /></g></g><g
         id="g48"><g
           id="g50"
           clip-path="url(#clipPath52)"><path
             d="M 801.531,663.777 C 890.219,704.973 936.648,793.223 905.227,860.918 873.379,752.18 340.156,699.813 182.484,729.031 23.1523,758.508 -48.2813,960.215 173.633,954.48 110.066,972.137 42.9961,951.035 14.4219,901.836 -23.0742,837.297 15.0625,745.117 99.6211,695.996 236.941,616.223 667.758,601.699 801.531,663.777"
             style="fill:url(#radialGradient56);fill-opacity:1;fill-rule:nonzero;stroke:none"
             id="path68"
             inkscape:connector-curvature="0" /></g></g><g
         id="g70"><g
           id="g72"
           clip-path="url(#clipPath74)"><path
             d="m 309.16,307.109 c -7.41,-97.492 44.988,-178.347 119.426,-183.984 -96.68,82.883 154.168,556.738 239.891,692.305 114.73,181.445 312.148,30.418 201.371,-102.785 46.078,46.171 60.449,116.054 31.5,165.019 -37.989,64.231 -137.047,75.957 -221.231,26.172 C 543.438,822.988 320.289,454.16 309.16,307.109"
             style="fill:url(#radialGradient78);fill-opacity:1;fill-rule:nonzero;stroke:none"
             id="path88"
             inkscape:connector-curvature="0" /></g></g><g
         id="g90"
         transform="matrix(10,0,0,10,972.6276,0)"><text
           transform="matrix(1,0,0,-1,94.3648,3.42539)"
           style="font-variant:normal;font-weight:bold;font-size:15.71500015px;font-family:'Helvetica Neue LT';-inkscape-font-specification:HelveticaNeueLT-Bold;writing-mode:lr-tb;fill:#442b8b;fill-opacity:1;fill-rule:nonzero;stroke:none"
           id="text92"><tspan
             x="0 10.199035 15.730715 24.751125 30.282804 39.303215 48.322746 57.641743 66.66127 72.774406 78.306084 82.674858 90.53228 100.13414 109.73668 113.79039"
             y="0"
             sodipodi:role="line"
             id="tspan94">Statechart Tools</tspan></text>
</g></g></g></svg>